{
.appVersion = "973";
copyright = "Copyright 2017 Google Inc. All Rights Reserved.";
customParameters = (
{
name = licenseURL;
value = "http://scripts.sil.org/OFL";
},
{
name = description;
value = "Designed by Monotype design team.";
},
{
name = trademark;
value = "Noto is a trademark of Google Inc.";
},
{
name = vendorID;
value = GOOG;
},
{
name = glyphOrder;
value = (
.notdef,
NULL,
CR,
space,
acutecomb,
uni0304,
uni030B,
uni0358,
u104B0,
u104B1,
u104B2,
u104B3,
u104B4,
u104B5,
u104B6,
u104B7,
u104B8,
u104B9,
u104BA,
u104BB,
u104BC,
u104BD,
u104BE,
u104BF,
u104C0,
u104C1,
u104C2,
u104C3,
u104C4,
u104C5,
u104C6,
u104C7,
u104C8,
u104C9,
u104CA,
u104CB,
u104CC,
u104CD,
u104CE,
u104CF,
u104D0,
u104D1,
u104D2,
u104D3,
u104D8,
u104D9,
u104DA,
u104DB,
u104DC,
u104DD,
u104DE,
u104DF,
u104E0,
u104E1,
u104E2,
u104E3,
u104E4,
u104E5,
u104E6,
u104E7,
u104E8,
u104E9,
u104EA,
u104EB,
u104EC,
u104ED,
u104EE,
u104EF,
u104F0,
u104F1,
u104F2,
u104F3,
u104F4,
u104F5,
u104F6,
u104F7,
u104F8,
u104F9,
u104FA,
u104FB,
vertbar,
horizbar1,
horizbar2
);
},
{
name = "Has WWS Names";
value = 1;
},
{
name = fsType;
value = (
);
},
{
name = versionString;
value = "Version 1.900";
},
{
name = license;
value = "This Font Software is licensed under the SIL Open Font License, Version 1.1. This Font Software is distributed on an \"AS IS\" BASIS, WITHOUT WARRANTIES OR CONDITIONS OF ANY KIND, either express or implied. See the SIL Open Font License for the specific language, permissions and limitations governing your use of this Font Software.";
},
{
name = unicodeRanges;
value = (
0,
1,
6,
57
);
}
);
date = "2017-02-27 14:06:14 +0000";
designer = "Monotype Design Team";
designerURL = "http://www.monotype.com/studio";
disablesAutomaticAlignment = 1;
disablesNiceNames = 1;
familyName = "Noto Sans Osage";
fontMaster = (
{
alignmentZones = (
"{1069, 15}",
"{714, 15}",
"{536, 15}",
"{0, -15}",
"{-293, -15}"
);
ascender = 1069;
capHeight = 714;
customParameters = (
{
name = typoAscender;
value = 1069;

glyphs = (
{
glyphname = .notdef;
lastChange = "2017-02-27 19:53:04 +0000";
layers = (
{
layerId = UUID0;
paths = (
{
closed = 1;
nodes = (
"505 0 LINE",
"505 714 LINE",
"94 714 LINE",
"94 0 LINE"
);
},
{
closed = 1;
nodes = (
"145 663 LINE",
"454 663 LINE",
"454 51 LINE",
"145 51 LINE"
);
}
);
width = 600;
}
);
},
{
glyphname = acutecomb;
lastChange = "2017-02-27 19:53:04 +0000";
layers = (
{
layerId = UUID0;
paths = (
{
closed = 1;
nodes = (
"-287 606 LINE",
"-240 642 OFFCURVE",
"-169 719 OFFCURVE",
"-144 756 CURVE",
"-144 766 LINE",
"-250 766 LINE",
"-273 721 OFFCURVE",
"-316 655 OFFCURVE",
"-345 618 CURVE",
"-345 606 LINE"
);
}
);
width = 0;
}
);
unicode = 0301;
},
{
glyphname = uni0304;
lastChange = "2017-02-27 19:53:04 +0000";
layers = (
{
layerId = UUID0;
paths = (
{
closed = 1;
nodes = (
"149 606 LINE",
"149 677 LINE",
"-148 677 LINE",
"-148 606 LINE"
);
}
);
width = 0;
}
);
unicode = 0304;
},
{
glyphname = uni030B;
lastChange = "2017-02-27 19:53:04 +0000";
layers = (
{
layerId = UUID0;
paths = (
{
closed = 1;
nodes = (
"100 606 LINE",
"145 642 OFFCURVE",
"212 721 OFFCURVE",
"233 756 CURVE",
"233 766 LINE",
"137 766 LINE",
"116 721 OFFCURVE",
"78 656 OFFCURVE",
"50 618 CURVE",
"50 606 LINE"
);
},
{
closed = 1;
nodes = (
"-76 606 LINE",
"-31 642 OFFCURVE",
"36 721 OFFCURVE",
"57 756 CURVE",
"57 766 LINE",
"-39 766 LINE",
"-61 721 OFFCURVE",
"-98 656 OFFCURVE",
"-126 618 CURVE",
"-126 606 LINE"
);
}
);
width = 0;
}
);
unicode = 030B;
},
{
glyphname = uni0358;
lastChange = "2017-02-27 19:53:04 +0000";
layers = (
{
layerId = UUID0;
paths = (
{
closed = 1;
nodes = (
"210 625 OFFCURVE",
"234 643 OFFCURVE",
"234 681 CURVE SMOOTH",
"234 720 OFFCURVE",
"210 737 OFFCURVE",
"183 737 CURVE SMOOTH",
"154 737 OFFCURVE",
"131 720 OFFCURVE",
"131 681 CURVE SMOOTH",
"131 643 OFFCURVE",
"154 625 OFFCURVE",
"183 625 CURVE SMOOTH"
);
}
);
width = 0;
}
);
unicode = 0358;
},
{
glyphname = u104B0;
lastChange = "2017-02-27 19:53:04 +0000";
layers = (
{
layerId = UUID0;
paths = (
{
closed = 1;
nodes = (
"95 0 LINE",
"255 456 LINE SMOOTH",
"276 516 OFFCURVE",
"291 567 OFFCURVE",
"300 614 CURVE",
"310 567 OFFCURVE",
"324 517 OFFCURVE",
"345 458 CURVE SMOOTH",
"506 0 LINE",
"600 0 LINE",
"345 714 LINE",
"255 714 LINE",
"0 0 LINE"
);
}
);
width = 600;
}
);
unicode = 104B0;
category = Letter;
subCategory = Uppercase;
},
{
glyphname = u104B3;
lastChange = "2017-02-27 19:53:04 +0000";
layers = (
{
layerId = UUID0;
paths = (
{
closed = 1;
nodes = (
"97 0 LINE",
"283 351 LINE",
"468 0 LINE",
"566 0 LINE",
"328 441 LINE",
"328 714 LINE",
"238 714 LINE",
"238 437 LINE",
"0 0 LINE"
);
}
);
width = 566;
}
);
unicode = 104B3;
category = Letter;
subCategory = Uppercase;
},
{
glyphname = u104B4;
lastChange = "2017-02-27 19:53:04 +0000";
layers = (
{
layerId = UUID0;
paths = (
{
closed = 1;
nodes = (
"619 -141 LINE",
"452 171 LINE",
"526 207 OFFCURVE",
"572 284 OFFCURVE",
"572 387 CURVE SMOOTH",
"572 531 OFFCURVE",
"484 634 OFFCURVE",
"351 634 CURVE SMOOTH",
"267 634 OFFCURVE",
"215 604 OFFCURVE",
"185 559 CURVE",
"180 559 LINE",
"182 581 OFFCURVE",
"185 619 OFFCURVE",
"185 664 CURVE SMOOTH",
"185 714 LINE",
"97 714 LINE",
"97 0 LINE",
"187 0 LINE",
"187 219 LINE",
"217 177 OFFCURVE",
"269 149 OFFCURVE",
"351 149 CURVE SMOOTH",
"368 149 LINE",
"514 -141 LINE"
);
},
{
closed = 1;
nodes = (
"220 227 OFFCURVE",
"187 314 OFFCURVE",
"187 386 CURVE SMOOTH",
"187 390 LINE SMOOTH",
"187 467 OFFCURVE",
"222 556 OFFCURVE",
"336 556 CURVE SMOOTH",
"434 556 OFFCURVE",
"477 483 OFFCURVE",
"477 388 CURVE SMOOTH",
"477 295 OFFCURVE",
"434 227 OFFCURVE",
"338 227 CURVE SMOOTH"
);
}
);
width = 634;
}
);
unicode = 104B4;
category = Letter;
subCategory = Uppercase;
},
{
glyphname = u104B5;
lastChange = "2017-02-27 19:53:04 +0000";
layers = (
{
layerId = UUID0;
paths = (
{
closed = 1;
nodes = (
"500 0 LINE",
"484 47 OFFCURVE",
"464 137 OFFCURVE",
"464 199 CURVE SMOOTH",
"464 289 OFFCURVE",
"498 333 OFFCURVE",
"577 333 CURVE SMOOTH",
"656 333 OFFCURVE",
"690 269 OFFCURVE",
"690 199 CURVE SMOOTH",
"690 137 OFFCURVE",
"670 47 OFFCURVE",
"654 0 CURVE",
"748 0 LINE",
"763 38 OFFCURVE",
"785 139 OFFCURVE",
"785 204 CURVE SMOOTH",
"785 347 OFFCURVE",
"704 412 OFFCURVE",
"577 412 CURVE SMOOTH",
"450 412 OFFCURVE",
"369 347 OFFCURVE",
"369 204 CURVE SMOOTH",
"369 167 OFFCURVE",
"375 119 OFFCURVE",
"384 77 CURVE",
"232 84 OFFCURVE",
"156 186 OFFCURVE",
"156 357 CURVE SMOOTH",
"156 536 OFFCURVE",
"250 645 OFFCURVE",
"403 645 CURVE SMOOTH",
"467 645 OFFCURVE",
"521 626 OFFCURVE",
"565 606 CURVE",
"601 682 LINE",
"547 709 OFFCURVE",
"477 724 OFFCURVE",
"404 724 CURVE SMOOTH",
"183 724 OFFCURVE",
"61 574 OFFCURVE",
"61 358 CURVE SMOOTH",
"61 133 OFFCURVE",
"170 0 OFFCURVE",
"389 0 CURVE SMOOTH"
);
}
);
width = 831;
}
);
unicode = 104B5;
category = Letter;
subCategory = Uppercase;
},
{
glyphname = u104B7;
lastChange = "2017-02-27 19:53:04 +0000";
layers = (
{
layerId = UUID0;
paths = (
{
closed = 1;
nodes = (
"348 -10 OFFCURVE",
"425 16 OFFCURVE",
"473 186 CURVE",
"460 183 LINE",
"477 51 OFFCURVE",
"501 -10 OFFCURVE",
"596 -10 CURVE SMOOTH",
"620 -10 OFFCURVE",
"646 -5 OFFCURVE",
"660 3 CURVE",
"660 79 LINE",
"647 73 OFFCURVE",
"624 69 OFFCURVE",
"607 69 CURVE SMOOTH",
"571 69 OFFCURVE",
"554 88 OFFCURVE",
"544 151 CURVE SMOOTH",
"514 335 LINE",
"559 518 LINE SMOOTH",
"581 608 OFFCURVE",
"593 648 OFFCURVE",
"645 648 CURVE",
"645 725 LINE",
"547 725 OFFCURVE",
"508 668 OFFCURVE",
"491 580 CURVE SMOOTH",
"473 484 LINE",
"487 487 LINE",
"459 641 OFFCURVE",
"405 725 OFFCURVE",
"287 725 CURVE SMOOTH",
"128 725 OFFCURVE",
"60 589 OFFCURVE",
"60 358 CURVE SMOOTH",
"60 127 OFFCURVE",
"134 -10 OFFCURVE",
"272 -10 CURVE SMOOTH"
);
},
{
closed = 1;
nodes = (
"191 69 OFFCURVE",
"155 162 OFFCURVE",
"155 358 CURVE SMOOTH",
"155 553 OFFCURVE",
"191 646 OFFCURVE",
"287 646 CURVE SMOOTH",
"374 646 OFFCURVE",
"399 534 OFFCURVE",
"412 464 CURVE SMOOTH",
"434 341 LINE",
"404 234 LINE SMOOTH",
"386 171 OFFCURVE",
"354 69 OFFCURVE",
"284 69 CURVE SMOOTH"
);
}
);
width = 690;
}
);
unicode = 104B7;
category = Letter;
subCategory = Uppercase;
},
{
glyphname = u104B9;
lastChange = "2017-02-27 19:53:04 +0000";
layers = (
{
layerId = UUID0;
paths = (
{
closed = 1;
nodes = (
"380 -10 OFFCURVE",
"471 65 OFFCURVE",
"471 194 CURVE SMOOTH",
"471 262 OFFCURVE",
"446 316 OFFCURVE",
"423 361 CURVE SMOOTH",
"366 470 LINE SMOOTH",
"345 511 OFFCURVE",
"329 546 OFFCURVE",
"329 576 CURVE SMOOTH",
"329 622 OFFCURVE",
"365 647 OFFCURVE",
"453 647 CURVE SMOOTH",
"470 647 OFFCURVE",
"487 646 OFFCURVE",
"502 644 CURVE",
"502 723 LINE",
"484 724 OFFCURVE",
"469 725 OFFCURVE",
"450 725 CURVE SMOOTH",
"317 725 OFFCURVE",
"234 676 OFFCURVE",
"234 576 CURVE SMOOTH",
"234 516 OFFCURVE",
"264 464 OFFCURVE",
"282 429 CURVE SMOOTH",
"337 322 LINE SMOOTH",
"356 286 OFFCURVE",
"376 240 OFFCURVE",
"376 190 CURVE SMOOTH",
"376 108 OFFCURVE",
"321 68 OFFCURVE",
"215 68 CURVE SMOOTH",
"139 68 OFFCURVE",
"63 89 OFFCURVE",
"15 110 CURVE",
"15 24 LINE",
"63 3 OFFCURVE",
"137 -10 OFFCURVE",
"208 -10 CURVE SMOOTH"
);
}
);
width = 532;
}
);
unicode = 104B9;
category = Letter;
subCategory = Uppercase;
},
{
glyphname = u104BA;
lastChange = "2017-02-27 19:53:04 +0000";
layers = (
{
components = (
{
name = u104B9;
}
);
layerId = UUID0;
paths = (
{
closed = 1;
nodes = (
"516 571 LINE",
"516 795 LINE",
"436 795 LINE",
"436 571 LINE"
);
}
);
width = 546;
}
);
unicode = 104BA;
category = Letter;
subCategory = Uppercase;
},
{
glyphname = u104BB;
lastChange = "2017-02-27 19:53:04 +0000";
layers = (
{
layerId = UUID0;
paths = (
{
closed = 1;
nodes = (
"252 0 LINE",
"172 336 LINE SMOOTH",
"162 377 OFFCURVE",
"152 418 OFFCURVE",
"152 463 CURVE SMOOTH",
"152 579 OFFCURVE",
"204 646 OFFCURVE",
"346 646 CURVE SMOOTH",
"488 646 OFFCURVE",
"540 579 OFFCURVE",
"540 463 CURVE SMOOTH",
"540 418 OFFCURVE",
"530 377 OFFCURVE",
"520 336 CURVE SMOOTH",
"440 0 LINE",
"530 0 LINE",
"610 338 LINE SMOOTH",
"619 377 OFFCURVE",
"630 426 OFFCURVE",
"630 465 CURVE SMOOTH",
"630 619 OFFCURVE",
"546 724 OFFCURVE",
"346 724 CURVE SMOOTH",
"146 724 OFFCURVE",
"62 619 OFFCURVE",
"62 465 CURVE SMOOTH",
"62 426 OFFCURVE",
"73 377 OFFCURVE",
"82 338 CURVE SMOOTH",
"162 0 LINE"
);
}
);
width = 692;
}
);
unicode = 104BB;
category = Letter;
subCategory = Uppercase;
},
{
glyphname = u104BC;
lastChange = "2017-02-27 19:53:04 +0000";
layers = (
{
layerId = UUID0;
paths = (
{
closed = 1;
nodes = (
"521 -240 OFFCURVE",
"600 -178 OFFCURVE",
"600 -44 CURVE SMOOTH",
"600 196 LINE SMOOTH",
"600 358 OFFCURVE",
"518 434 OFFCURVE",
"374 434 CURVE SMOOTH",
"368 434 OFFCURVE",
"362 434 OFFCURVE",
"356 433 CURVE",
"648 714 LINE",
"533 714 LINE",
"187 372 LINE",
"187 714 LINE",
"97 714 LINE",
"97 0 LINE",
"187 0 LINE",
"187 144 LINE SMOOTH",
"187 270 OFFCURVE",
"240 356 OFFCURVE",
"359 356 CURVE SMOOTH",
"460 356 OFFCURVE",
"510 306 OFFCURVE",
"510 185 CURVE SMOOTH",
"510 -50 LINE SMOOTH",
"510 -137 OFFCURVE",
"457 -161 OFFCURVE",
"406 -161 CURVE SMOOTH",
"377 -161 OFFCURVE",
"351 -157 OFFCURVE",
"330 -151 CURVE",
"330 -227 LINE",
"348 -235 OFFCURVE",
"373 -240 OFFCURVE",
"406 -240 CURVE SMOOTH"
);
}
);
width = 659;
}
);
unicode = 104BC;
category = Letter;
subCategory = Uppercase;
},
{
glyphname = u104BE;
lastChange = "2017-02-27 19:53:04 +0000";
layers = (
{
layerId = UUID0;
paths = (
{
closed = 1;
nodes = (
"677 -223 LINE",
"654 -159 OFFCURVE",
"628 -122 OFFCURVE",
"600 -89 CURVE",
"600 196 LINE SMOOTH",
"600 358 OFFCURVE",
"518 434 OFFCURVE",
"374 434 CURVE SMOOTH",
"368 434 OFFCURVE",
"362 434 OFFCURVE",
"356 433 CURVE",
"648 714 LINE",
"533 714 LINE",
"187 372 LINE",
"187 714 LINE",
"97 714 LINE",
"97 0 LINE",
"187 0 LINE",
"187 144 LINE SMOOTH",
"187 270 OFFCURVE",
"240 356 OFFCURVE",
"359 356 CURVE SMOOTH",
"460 356 OFFCURVE",
"510 306 OFFCURVE",
"510 185 CURVE SMOOTH",
"510 -27 LINE",
"489 -19 OFFCURVE",
"457 -15 OFFCURVE",
"432 -15 CURVE SMOOTH",
"335 -15 OFFCURVE",
"275 -65 OFFCURVE",
"275 -133 CURVE SMOOTH",
"275 -203 OFFCURVE",
"326 -247 OFFCURVE",
"425 -247 CURVE SMOOTH",
"493 -247 OFFCURVE",
"549 -221 OFFCURVE",
"574 -182 CURVE",
"584 -201 OFFCURVE",
"599 -223 OFFCURVE",
"611 -256 CURVE"
);
},
{
closed = 1;
nodes = (
"379 -175 OFFCURVE",
"362 -156 OFFCURVE",
"362 -132 CURVE SMOOTH",
"362 -102 OFFCURVE",
"393 -87 OFFCURVE",
"439 -87 CURVE SMOOTH",
"460 -87 OFFCURVE",
"490 -91 OFFCURVE",
"510 -107 CURVE",
"506 -153 OFFCURVE",
"476 -175 OFFCURVE",
"426 -175 CURVE SMOOTH"
);
}
);
width = 659;
}
);
unicode = 104BE;
category = Letter;
subCategory = Uppercase;
},
{
glyphname = u104BF;
lastChange = "2017-02-27 19:53:04 +0000";
layers = (
{
layerId = UUID0;
paths = (
{
closed = 1;
nodes = (
"546 -10 OFFCURVE",
"647 65 OFFCURVE",
"692 190 CURVE",
"597 190 LINE",
"563 110 OFFCURVE",
"495 68 OFFCURVE",
"391 68 CURVE SMOOTH",
"232 68 OFFCURVE",
"157 184 OFFCURVE",
"157 334 CURVE SMOOTH",
"157 572 OFFCURVE",
"340 665 OFFCURVE",
"595 667 CURVE",
"595 749 LINE",
"300 747 OFFCURVE",
"61 627 OFFCURVE",
"61 334 CURVE SMOOTH",
"61 149 OFFCURVE",
"168 -10 OFFCURVE",
"391 -10 CURVE SMOOTH"
);
}
);
width = 742;
}
);
unicode = 104BF;
category = Letter;
subCategory = Uppercase;
},
{
glyphname = u104C0;
lastChange = "2017-02-27 19:53:04 +0000";
layers = (
{
layerId = UUID0;
paths = (
{
closed = 1;
nodes = (
"187 0 LINE",
"187 490 LINE",
"208 609 OFFCURVE",
"283 649 OFFCURVE",
"352 649 CURVE SMOOTH",
"367 649 LINE",
"309 600 OFFCURVE",
"273 529 OFFCURVE",
"273 437 CURVE SMOOTH",
"273 280 OFFCURVE",
"366 225 OFFCURVE",
"459 225 CURVE SMOOTH",
"553 225 OFFCURVE",
"644 282 OFFCURVE",
"644 437 CURVE SMOOTH",
"644 528 OFFCURVE",
"613 599 OFFCURVE",
"565 647 CURVE",
"577 648 OFFCURVE",
"591 649 OFFCURVE",
"605 649 CURVE SMOOTH",
"669 649 OFFCURVE",
"743 630 OFFCURVE",
"787 610 CURVE",
"812 681 LINE",
"758 708 OFFCURVE",
"677 725 OFFCURVE",
"604 725 CURVE SMOOTH",
"558 725 OFFCURVE",
"514 719 OFFCURVE",
"474 707 CURVE",
"441 719 OFFCURVE",
"404 725 OFFCURVE",
"366 725 CURVE SMOOTH",
"313 725 OFFCURVE",
"226 699 OFFCURVE",
"187 636 CURVE",
"185 636 LINE",
"186 645 OFFCURVE",
"187 655 OFFCURVE",
"187 668 CURVE SMOOTH",
"187 714 LINE",
"97 714 LINE",
"97 0 LINE"
);
},
{
closed = 1;
nodes = (
"408 302 OFFCURVE",
"364 340 OFFCURVE",
"364 443 CURVE SMOOTH",
"364 536 OFFCURVE",
"403 593 OFFCURVE",
"467 623 CURVE",
"520 593 OFFCURVE",
"553 536 OFFCURVE",
"553 443 CURVE SMOOTH",
"553 340 OFFCURVE",
"509 302 OFFCURVE",
"460 302 CURVE SMOOTH"
);
}
);
width = 812;
}
);
unicode = 104C0;
category = Letter;
subCategory = Uppercase;
},
{
glyphname = u104C1;
lastChange = "2017-02-27 19:53:04 +0000";
layers = (
{
layerId = UUID0;
paths = (
{
closed = 1;
nodes = (
"616 -10 OFFCURVE",
"717 65 OFFCURVE",
"762 190 CURVE",
"667 190 LINE",
"633 110 OFFCURVE",
"565 68 OFFCURVE",
"461 68 CURVE SMOOTH",
"302 68 OFFCURVE",
"230 184 OFFCURVE",
"230 334 CURVE SMOOTH",
"230 400 OFFCURVE",
"235 450 OFFCURVE",
"248 486 CURVE SMOOTH",
"330 714 LINE",
"236 714 LINE",
"-20 0 LINE",
"75 0 LINE",
"154 222 LINE",
"187 89 OFFCURVE",
"285 -10 OFFCURVE",
"461 -10 CURVE SMOOTH"
);
}
);
width = 782;
}
);
unicode = 104C1;
category = Letter;
subCategory = Uppercase;
},
{
glyphname = u104C2;
lastChange = "2017-02-27 19:53:04 +0000";
layers = (
{
layerId = UUID0;
paths = (
{
closed = 1;
nodes = (
"606 -10 OFFCURVE",
"720 137 OFFCURVE",
"720 358 CURVE SMOOTH",
"720 580 OFFCURVE",
"606 725 OFFCURVE",
"392 725 CURVE SMOOTH",
"168 725 OFFCURVE",
"61 578 OFFCURVE",
"61 359 CURVE SMOOTH",
"61 138 OFFCURVE",
"168 -10 OFFCURVE",
"391 -10 CURVE SMOOTH"
);
},
{
closed = 1;
nodes = (
"230 68 OFFCURVE",
"156 178 OFFCURVE",
"156 358 CURVE SMOOTH",
"156 538 OFFCURVE",
"230 646 OFFCURVE",
"392 646 CURVE SMOOTH",
"553 646 OFFCURVE",
"625 538 OFFCURVE",
"625 358 CURVE SMOOTH",
"625 178 OFFCURVE",
"553 68 OFFCURVE",
"391 68 CURVE SMOOTH"
);
}
);
width = 781;
}
);
unicode = 104C2;
category = Letter;
subCategory = Uppercase;
},
{
glyphname = u104C4;
lastChange = "2017-02-27 19:53:04 +0000";
layers = (
{
layerId = UUID0;
paths = (
{
closed = 1;
nodes = (
"187 0 LINE",
"187 189 LINE",
"217 147 OFFCURVE",
"269 119 OFFCURVE",
"351 119 CURVE SMOOTH",
"483 119 OFFCURVE",
"572 213 OFFCURVE",
"572 357 CURVE SMOOTH",
"572 501 OFFCURVE",
"484 604 OFFCURVE",
"351 604 CURVE SMOOTH",
"267 604 OFFCURVE",
"215 574 OFFCURVE",
"185 529 CURVE",
"180 529 LINE",
"182 551 OFFCURVE",
"185 589 OFFCURVE",
"185 634 CURVE SMOOTH",
"185 714 LINE",
"97 714 LINE",
"97 0 LINE"
);
},
{
closed = 1;
nodes = (
"220 197 OFFCURVE",
"187 284 OFFCURVE",
"187 356 CURVE SMOOTH",
"187 360 LINE SMOOTH",
"187 437 OFFCURVE",
"222 526 OFFCURVE",
"336 526 CURVE SMOOTH",
"434 526 OFFCURVE",
"477 453 OFFCURVE",
"477 358 CURVE SMOOTH",
"477 265 OFFCURVE",
"434 197 OFFCURVE",
"338 197 CURVE SMOOTH"
);
}
);
width = 632;
}
);
unicode = 104C4;
category = Letter;
subCategory = Uppercase;
},
{
glyphname = u104C6;
lastChange = "2017-02-27 19:53:04 +0000";
layers = (
{
layerId = UUID0;
paths = (
{
closed = 1;
nodes = (
"611 -9 LINE",
"352 -2 OFFCURVE",
"156 88 OFFCURVE",
"156 357 CURVE",
"156 536 OFFCURVE",
"250 645 OFFCURVE",
"403 645 CURVE SMOOTH",
"467 645 OFFCURVE",
"521 626 OFFCURVE",
"565 606 CURVE",
"601 682 LINE",
"547 709 OFFCURVE",
"477 724 OFFCURVE",
"404 724 CURVE SMOOTH",
"183 724 OFFCURVE",
"61 574 OFFCURVE",
"61 358 CURVE SMOOTH",
"61 65 OFFCURVE",
"286 -90 OFFCURVE",
"611 -91 CURVE"
);
}
);
width = 632;
}
);
unicode = 104C6;
category = Letter;
subCategory = Uppercase;
},
{
glyphname = u104C7;
lastChange = "2017-02-27 19:53:04 +0000";
layers = (
{
guideLines = (
{
angle = 90;
position = "{283, 49}";
}
);
layerId = UUID0;
paths = (
{
closed = 1;
nodes = (
"408 -10 OFFCURVE",
"512 53 OFFCURVE",
"512 177 CURVE SMOOTH",
"512 293 OFFCURVE",
"422 333 OFFCURVE",
"307 388 CURVE SMOOTH",
"218 430 OFFCURVE",
"163 455 OFFCURVE",
"163 533 CURVE SMOOTH",
"163 606 OFFCURVE",
"209 645 OFFCURVE",
"299 645 CURVE SMOOTH",
"361 645 OFFCURVE",
"421 628 OFFCURVE",
"469 607 CURVE",
"497 684 LINE",
"445 708 OFFCURVE",
"380 724 OFFCURVE",
"307 724 CURVE SMOOTH",
"163 724 OFFCURVE",
"72 658 OFFCURVE",
"72 537 CURVE SMOOTH",
"72 412 OFFCURVE",
"170 365 OFFCURVE",
"262 322 CURVE SMOOTH",
"370 271 OFFCURVE",
"422 242 OFFCURVE",
"422 176 CURVE SMOOTH",
"422 108 OFFCURVE",
"369 68 OFFCURVE",
"283 68 CURVE SMOOTH",
"172 68 OFFCURVE",
"140 119 OFFCURVE",
"140 191 CURVE SMOOTH",
"140 306 OFFCURVE",
"253 384 OFFCURVE",
"391 384 CURVE SMOOTH",
"535 384 OFFCURVE",
"621 314 OFFCURVE",
"621 175 CURVE SMOOTH",
"621 0 LINE",
"710 0 LINE",
"710 183 LINE SMOOTH",
"710 360 OFFCURVE",
"592 462 OFFCURVE",
"399 462 CURVE SMOOTH",
"209 462 OFFCURVE",
"49 348 OFFCURVE",
"49 186 CURVE SMOOTH",
"49 46 OFFCURVE",
"143 -10 OFFCURVE",
"280 -10 CURVE SMOOTH"
);
}
);
width = 770;
}
);
unicode = 104C7;
category = Letter;
subCategory = Uppercase;
},
{
glyphname = u104C8;
lastChange = "2017-02-27 19:53:04 +0000";
layers = (
{
layerId = UUID0;
paths = (
{
closed = 1;
nodes = (
"336 0 LINE SMOOTH",
"571 0 OFFCURVE",
"709 123 OFFCURVE",
"709 364 CURVE SMOOTH",
"709 593 OFFCURVE",
"572 714 OFFCURVE",
"373 714 CURVE",
"10 714 LINE",
"10 635 LINE",
"237 635 LINE",
"131 0 LINE"
);
},
{
closed = 1;
nodes = (
"330 635 LINE",
"362 635 LINE SMOOTH",
"517 635 OFFCURVE",
"614 551 OFFCURVE",
"614 361 CURVE SMOOTH",
"614 173 OFFCURVE",
"517 77 OFFCURVE",
"324 77 CURVE SMOOTH",
"237 77 LINE"
);
}
);
width = 770;
}
);
unicode = 104C8;
category = Letter;
subCategory = Uppercase;
},
{
glyphname = u104CA;
lastChange = "2017-02-27 19:53:04 +0000";
layers = (
{
layerId = UUID0;
paths = (
{
closed = 1;
nodes = (
"364 -182 OFFCURVE",
"463 -143 OFFCURVE",
"519 -110 CURVE",
"495 -32 LINE",
"441 -62 OFFCURVE",
"354 -103 OFFCURVE",
"264 -103 CURVE SMOOTH",
"165 -103 OFFCURVE",
"113 -53 OFFCURVE",
"113 19 CURVE SMOOTH",
"113 116 OFFCURVE",
"210 142 OFFCURVE",
"336 176 CURVE SMOOTH",
"502 221 OFFCURVE",
"656 275 OFFCURVE",
"656 470 CURVE SMOOTH",
"656 608 OFFCURVE",
"576 714 OFFCURVE",
"370 714 CURVE SMOOTH",
"97 714 LINE",
"97 635 LINE",
"362 635 LINE SMOOTH",
"501 635 OFFCURVE",
"563 581 OFFCURVE",
"563 470 CURVE SMOOTH",
"563 325 OFFCURVE",
"458 295 OFFCURVE",
"319 258 CURVE SMOOTH",
"158 215 OFFCURVE",
"20 166 OFFCURVE",
"20 14 CURVE SMOOTH",
"20 -105 OFFCURVE",
"105 -182 OFFCURVE",
"256 -182 CURVE SMOOTH"
);
},
{
closed = 1;
nodes = (
"301 201 LINE",
"404 675 LINE",
"312 675 LINE",
"203 176 LINE"
);
}
);
width = 716;
}
);
unicode = 104CA;
category = Letter;
subCategory = Uppercase;
},
{
glyphname = u104CD;
lastChange = "2017-02-27 19:53:04 +0000";
layers = (
{
layerId = UUID0;
paths = (
{
closed = 1;
nodes = (
"265 0 LINE",
"265 358 LINE",
"453 358 LINE SMOOTH",
"543 358 OFFCURVE",
"576 322 OFFCURVE",
"576 245 CURVE SMOOTH",
"576 0 LINE",
"666 0 LINE",
"666 256 LINE SMOOTH",
"666 374 OFFCURVE",
"592 437 OFFCURVE",
"459 437 CURVE SMOOTH",
"265 437 LINE",
"265 634 LINE",
"510 634 LINE",
"510 714 LINE",
"10 714 LINE",
"10 634 LINE",
"175 634 LINE",
"175 0 LINE"
);
}
);
width = 741;
}
);
unicode = 104CD;
category = Letter;
subCategory = Uppercase;
},
{
glyphname = u104CE;
lastChange = "2017-02-27 19:53:04 +0000";
layers = (
{
layerId = UUID0;
paths = (
{
closed = 1;
nodes = (
"551 -10 OFFCURVE",
"640 104 OFFCURVE",
"640 252 CURVE SMOOTH",
"640 714 LINE",
"551 714 LINE",
"551 252 LINE SMOOTH",
"551 144 OFFCURVE",
"496 68 OFFCURVE",
"367 68 CURVE SMOOTH",
"242 68 OFFCURVE",
"180 135 OFFCURVE",
"180 251 CURVE SMOOTH",
"180 714 LINE",
"90 714 LINE",
"90 254 LINE SMOOTH",
"90 95 OFFCURVE",
"184 -10 OFFCURVE",
"362 -10 CURVE SMOOTH"
);
}
);
width = 731;
}
);
unicode = 104CE;
category = Letter;
subCategory = Uppercase;
},
{
glyphname = u104CF;
lastChange = "2017-02-27 19:53:04 +0000";
layers = (
{
layerId = UUID0;
paths = (
{
closed = 1;
nodes = (
"336 0 LINE",
"430 432 LINE",
"187 432 LINE",
"250 714 LINE",
"157 714 LINE",
"78 353 LINE",
"321 353 LINE",
"243 0 LINE"
);
}
);
width = 508;
}
);
unicode = 104CF;
category = Letter;
subCategory = Uppercase;
},
{
glyphname = u104D0;
lastChange = "2017-02-27 19:53:04 +0000";
layers = (
{
layerId = UUID0;
paths = (
{
closed = 1;
nodes = (
"145 0 LINE",
"145 236 LINE SMOOTH",
"145 357 OFFCURVE",
"207 420 OFFCURVE",
"359 420 CURVE",
"359 0 LINE",
"447 0 LINE",
"447 420 LINE",
"596 420 OFFCURVE",
"661 358 OFFCURVE",
"661 234 CURVE SMOOTH",
"661 0 LINE",
"751 0 LINE",
"751 236 LINE SMOOTH",
"751 368 OFFCURVE",
"688 497 OFFCURVE",
"447 497 CURVE",
"447 714 LINE",
"359 714 LINE",
"359 497 LINE",
"119 497 OFFCURVE",
"53 371 OFFCURVE",
"53 235 CURVE SMOOTH",
"53 0 LINE"
);
}
);
width = 804;
}
);
unicode = 104D0;
category = Letter;
subCategory = Uppercase;
},
{
glyphname = u104D1;
lastChange = "2017-02-27 19:53:04 +0000";
layers = (
{
layerId = UUID0;
paths = (
{
closed = 1;
nodes = (
"445 0 LINE",
"445 217 LINE",
"685 217 OFFCURVE",
"751 343 OFFCURVE",
"751 479 CURVE SMOOTH",
"751 714 LINE",
"659 714 LINE",
"659 478 LINE SMOOTH",
"659 357 OFFCURVE",
"597 294 OFFCURVE",
"445 294 CURVE",
"445 714 LINE",
"357 714 LINE",
"357 294 LINE",
"208 294 OFFCURVE",
"143 356 OFFCURVE",
"143 480 CURVE SMOOTH",
"143 714 LINE",
"53 714 LINE",
"53 478 LINE SMOOTH",
"53 346 OFFCURVE",
"116 217 OFFCURVE",
"357 217 CURVE",
"357 0 LINE"
);
}
);
width = 804;
}
);
unicode = 104D1;
category = Letter;
subCategory = Uppercase;
},
{
glyphname = u104D2;
lastChange = "2017-02-27 19:53:04 +0000";
layers = (
{
layerId = UUID0;
paths = (
{
closed = 1;
nodes = (
"93 0 LINE",
"523 646 LINE",
"523 714 LINE",
"50 714 LINE",
"50 634 LINE",
"414 634 LINE",
"-9 0 LINE"
);
}
);
width = 572;
}
);
unicode = 104D2;
category = Letter;
subCategory = Uppercase;
},
{
glyphname = u104D3;
lastChange = "2017-02-27 19:53:04 +0000";
layers = (
{
layerId = UUID0;
paths = (
{
closed = 1;
nodes = (
"101 0 LINE",
"121 35 LINE SMOOTH",
"156 96 OFFCURVE",
"231 132 OFFCURVE",
"319 132 CURVE SMOOTH",
"426 132 OFFCURVE",
"494 85 OFFCURVE",
"527 0 CURVE",
"619 0 LINE",
"577 133 OFFCURVE",
"479 211 OFFCURVE",
"329 211 CURVE SMOOTH",
"288 211 OFFCURVE",
"253 205 OFFCURVE",
"223 195 CURVE",
"523 646 LINE",
"523 714 LINE",
"50 714 LINE",
"50 634 LINE",
"414 634 LINE",
"15 32 LINE",
"15 0 LINE"
);
}
);
width = 639;
}
);
unicode = 104D3;
category = Letter;
subCategory = Uppercase;
},
{
glyphname = u104D8;
lastChange = "2017-02-27 19:53:04 +0000";
layers = (
{
layerId = UUID0;
paths = (
{
closed = 1;
nodes = (
"94 0 LINE",
"208 316 LINE SMOOTH",
"223 359 OFFCURVE",
"246 425 OFFCURVE",
"253 458 CURVE",
"257 458 LINE",
"263 425 OFFCURVE",
"284 360 OFFCURVE",
"300 316 CURVE SMOOTH",
"414 0 LINE",
"508 0 LINE",
"305 536 LINE",
"204 536 LINE",
"0 0 LINE"
);
}
);
width = 508;
}
);
unicode = 104D8;
category = Letter;
subCategory = Lowercase;
},
{
glyphname = u104DB;
lastChange = "2017-02-27 19:53:04 +0000";
layers = (
{
layerId = UUID0;
paths = (
{
closed = 1;
nodes = (
"95 0 LINE",
"211 305 LINE SMOOTH",
"231 359 OFFCURVE",
"248 407 OFFCURVE",
"256 451 CURVE",
"260 451 LINE",
"268 418 OFFCURVE",
"286 359 OFFCURVE",
"306 304 CURVE SMOOTH",
"415 0 LINE",
"510 0 LINE",
"279 610 LINE SMOOTH",
"241 711 OFFCURVE",
"188 776 OFFCURVE",
"84 776 CURVE SMOOTH",
"52 776 OFFCURVE",
"28 772 OFFCURVE",
"11 768 CURVE",
"11 698 LINE",
"25 701 OFFCURVE",
"47 704 OFFCURVE",
"70 704 CURVE SMOOTH",
"131 704 OFFCURVE",
"166 666 OFFCURVE",
"189 609 CURVE SMOOTH",
"217 538 LINE",
"1 0 LINE"
);
}
);
width = 510;
}
);
unicode = 104DB;
category = Letter;
subCategory = Lowercase;
},
{
glyphname = u104DC;
lastChange = "2017-02-27 19:53:04 +0000";
layers = (
{
layerId = UUID0;
paths = (
{
closed = 1;
nodes = (
"517 -120 LINE",
"374 128 LINE",
"416 157 OFFCURVE",
"442 213 OFFCURVE",
"442 294 CURVE SMOOTH",
"442 419 OFFCURVE",
"381 482 OFFCURVE",
"289 482 CURVE SMOOTH",
"229 482 OFFCURVE",
"189 455 OFFCURVE",
"174 429 CURVE",
"171 429 LINE",
"172 452 OFFCURVE",
"173 471 OFFCURVE",
"173 494 CURVE SMOOTH",
"173 536 LINE",
"85 536 LINE",
"85 0 LINE",
"173 0 LINE",
"173 98 LINE SMOOTH",
"173 115 OFFCURVE",
"172 138 OFFCURVE",
"171 154 CURVE",
"175 154 LINE",
"197 126 OFFCURVE",
"230 105 OFFCURVE",
"292 105 CURVE",
"415 -120 LINE"
);
},
{
closed = 1;
nodes = (
"205 180 OFFCURVE",
"173 226 OFFCURVE",
"173 278 CURVE SMOOTH",
"173 308 LINE SMOOTH",
"173 358 OFFCURVE",
"209 409 OFFCURVE",
"271 409 CURVE SMOOTH",
"326 409 OFFCURVE",
"351 360 OFFCURVE",
"351 294 CURVE SMOOTH",
"351 229 OFFCURVE",
"324 180 OFFCURVE",
"269 180 CURVE SMOOTH"
);
}
);
width = 500;
}
);
unicode = 104DC;
category = Letter;
subCategory = Lowercase;
},
{
glyphname = u104DD;
lastChange = "2017-02-27 19:53:04 +0000";
layers = (
{
layerId = UUID0;
paths = (
{
closed = 1;
nodes = (
"403 0 LINE",
"391 36 OFFCURVE",
"376 104 OFFCURVE",
"376 150 CURVE SMOOTH",
"376 200 OFFCURVE",
"391 237 OFFCURVE",
"451 237 CURVE SMOOTH",
"511 237 OFFCURVE",
"526 193 OFFCURVE",
"526 150 CURVE SMOOTH",
"526 104 OFFCURVE",
"511 36 OFFCURVE",
"499 0 CURVE",
"586 0 LINE",
"598 29 OFFCURVE",
"614 105 OFFCURVE",
"614 154 CURVE SMOOTH",
"614 262 OFFCURVE",
"547 311 OFFCURVE",
"451 311 CURVE SMOOTH",
"355 311 OFFCURVE",
"288 262 OFFCURVE",
"288 154 CURVE SMOOTH",
"288 131 OFFCURVE",
"291 103 OFFCURVE",
"296 76 CURVE",
"197 77 OFFCURVE",
"146 138 OFFCURVE",
"146 266 CURVE SMOOTH",
"146 400 OFFCURVE",
"197 469 OFFCURVE",
"313 469 CURVE SMOOTH",
"366 469 OFFCURVE",
"412 457 OFFCURVE",
"444 445 CURVE",
"475 514 LINE",
"443 530 OFFCURVE",
"388 546 OFFCURVE",
"313 546 CURVE SMOOTH",
"169 546 OFFCURVE",
"55 463 OFFCURVE",
"55 265 CURVE SMOOTH",
"55 75 OFFCURVE",
"157 0 OFFCURVE",
"300 0 CURVE SMOOTH"
);
}
);
width = 654;
}
);
unicode = 104DD;
category = Letter;
subCategory = Lowercase;
},
{
glyphname = u104DF;
lastChange = "2017-02-27 19:53:04 +0000";
layers = (
{
layerId = UUID0;
paths = (
{
closed = 1;
nodes = (
"324 -10 OFFCURVE",
"398 16 OFFCURVE",
"433 148 CURVE",
"422 137 LINE",
"434 67 OFFCURVE",
"462 -10 OFFCURVE",
"553 -10 CURVE SMOOTH",
"571 -10 OFFCURVE",
"586 -9 OFFCURVE",
"610 -3 CURVE",
"610 67 LINE",
"594 64 OFFCURVE",
"581 62 OFFCURVE",
"570 62 CURVE SMOOTH",
"528 62 OFFCURVE",
"510 88 OFFCURVE",
"498 146 CURVE SMOOTH",
"468 296 LINE",
"468 240 LINE",
"498 390 LINE SMOOTH",
"510 448 OFFCURVE",
"528 474 OFFCURVE",
"570 474 CURVE",
"570 545 LINE",
"560 546 OFFCURVE",
"555 546 OFFCURVE",
"546 546 CURVE SMOOTH",
"475 546 OFFCURVE",
"438 490 OFFCURVE",
"425 394 CURVE",
"434 392 LINE",
"403 512 OFFCURVE",
"334 546 OFFCURVE",
"265 546 CURVE SMOOTH",
"139 546 OFFCURVE",
"55 447 OFFCURVE",
"55 266 CURVE SMOOTH",
"55 83 OFFCURVE",
"140 -10 OFFCURVE",
"259 -10 CURVE SMOOTH"
);
},
{
closed = 1;
nodes = (
"183 62 OFFCURVE",
"146 141 OFFCURVE",
"146 265 CURVE SMOOTH",
"146 400 OFFCURVE",
"191 472 OFFCURVE",
"264 472 CURVE SMOOTH",
"320 472 OFFCURVE",
"359 438 OFFCURVE",
"382 307 CURVE SMOOTH",
"389 267 LINE",
"382 229 LINE SMOOTH",
"358 101 OFFCURVE",
"324 62 OFFCURVE",
"265 62 CURVE SMOOTH"
);
}
);
width = 640;
}
);
unicode = 104DF;
category = Letter;
subCategory = Lowercase;
},
{
glyphname = u104E1;
lastChange = "2017-02-27 19:53:04 +0000";
layers = (
{
layerId = UUID0;
paths = (
{
closed = 1;
nodes = (
"319 -10 OFFCURVE",
"402 42 OFFCURVE",
"402 143 CURVE SMOOTH",
"402 210 OFFCURVE",
"361 256 OFFCURVE",
"332 306 CURVE SMOOTH",
"308 348 OFFCURVE",
"278 382 OFFCURVE",
"278 424 CURVE SMOOTH",
"278 460 OFFCURVE",
"297 475 OFFCURVE",
"338 475 CURVE SMOOTH",
"355 475 OFFCURVE",
"372 472 OFFCURVE",
"396 465 CURVE",
"415 536 LINE",
"388 543 OFFCURVE",
"362 546 OFFCURVE",
"337 546 CURVE SMOOTH",
"256 546 OFFCURVE",
"194 509 OFFCURVE",
"194 425 CURVE SMOOTH",
"194 365 OFFCURVE",
"231 314 OFFCURVE",
"262 263 CURVE SMOOTH",
"289 219 OFFCURVE",
"317 180 OFFCURVE",
"317 140 CURVE SMOOTH",
"317 92 OFFCURVE",
"277 61 OFFCURVE",
"194 61 CURVE SMOOTH",
"125 61 OFFCURVE",
"62 83 OFFCURVE",
"20 104 CURVE",
"20 24 LINE",
"65 3 OFFCURVE",
"121 -10 OFFCURVE",
"187 -10 CURVE SMOOTH"
);
}
);
width = 447;
}
);
unicode = 104E1;
category = Letter;
subCategory = Lowercase;
},
{
glyphname = u104E2;
lastChange = "2017-02-27 19:53:04 +0000";
layers = (
{
components = (
{
name = u104E1;
}
);
layerId = UUID0;
paths = (
{
closed = 1;
nodes = (
"435 401 LINE",
"435 605 LINE",
"366 605 LINE",
"366 401 LINE"
);
}
);
width = 447;
}
);
unicode = 104E2;
category = Letter;
subCategory = Lowercase;
},
{
glyphname = u104E3;
lastChange = "2017-02-27 19:53:04 +0000";
layers = (
{
layerId = UUID0;
paths = (
{
closed = 1;
nodes = (
"178 0 LINE",
"149 197 LINE SMOOTH",
"145 223 OFFCURVE",
"139 286 OFFCURVE",
"139 317 CURVE SMOOTH",
"139 400 OFFCURVE",
"170 474 OFFCURVE",
"283 474 CURVE SMOOTH",
"401 474 OFFCURVE",
"428 400 OFFCURVE",
"428 317 CURVE SMOOTH",
"428 286 OFFCURVE",
"422 223 OFFCURVE",
"418 197 CURVE SMOOTH",
"389 0 LINE",
"477 0 LINE",
"506 200 LINE SMOOTH",
"510 226 OFFCURVE",
"517 290 OFFCURVE",
"517 321 CURVE SMOOTH",
"517 466 OFFCURVE",
"452 546 OFFCURVE",
"284 546 CURVE SMOOTH",
"118 546 OFFCURVE",
"50 466 OFFCURVE",
"50 321 CURVE SMOOTH",
"50 290 OFFCURVE",
"57 226 OFFCURVE",
"61 200 CURVE SMOOTH",
"90 0 LINE"
);
}
);
width = 567;
}
);
unicode = 104E3;
category = Letter;
subCategory = Lowercase;
},
{
glyphname = u104E4;
lastChange = "2017-02-27 19:53:04 +0000";
layers = (
{
layerId = UUID0;
paths = (
{
closed = 1;
nodes = (
"468 -240 OFFCURVE",
"513 -180 OFFCURVE",
"513 -80 CURVE SMOOTH",
"513 140 LINE SMOOTH",
"513 277 OFFCURVE",
"461 336 OFFCURVE",
"329 336 CURVE SMOOTH",
"324 336 OFFCURVE",
"319 336 OFFCURVE",
"314 335 CURVE",
"520 536 LINE",
"407 536 LINE",
"236 365 LINE SMOOTH",
"206 335 OFFCURVE",
"184 303 OFFCURVE",
"172 287 CURVE",
"168 287 LINE",
"169 312 OFFCURVE",
"172 353 OFFCURVE",
"172 374 CURVE SMOOTH",
"172 760 LINE",
"85 760 LINE",
"85 0 LINE",
"173 0 LINE",
"173 90 LINE SMOOTH",
"173 194 OFFCURVE",
"212 262 OFFCURVE",
"318 262 CURVE SMOOTH",
"398 262 OFFCURVE",
"425 220 OFFCURVE",
"425 134 CURVE SMOOTH",
"425 -83 LINE SMOOTH",
"425 -148 OFFCURVE",
"396 -167 OFFCURVE",
"358 -167 CURVE SMOOTH",
"334 -167 OFFCURVE",
"316 -163 OFFCURVE",
"298 -157 CURVE",
"298 -228 LINE",
"315 -235 OFFCURVE",
"337 -240 OFFCURVE",
"369 -240 CURVE SMOOTH"
);
}
);
width = 595;
}
);
unicode = 104E4;
category = Letter;
subCategory = Lowercase;
},
{
glyphname = u104E6;
lastChange = "2017-02-27 19:53:04 +0000";
layers = (
{
layerId = UUID0;
paths = (
{
closed = 1;
nodes = (
"581 -211 LINE",
"560 -159 OFFCURVE",
"538 -119 OFFCURVE",
"513 -88 CURVE",
"513 140 LINE SMOOTH",
"513 277 OFFCURVE",
"461 336 OFFCURVE",
"329 336 CURVE SMOOTH",
"324 336 OFFCURVE",
"319 336 OFFCURVE",
"314 335 CURVE",
"520 536 LINE",
"407 536 LINE",
"236 365 LINE SMOOTH",
"206 335 OFFCURVE",
"184 303 OFFCURVE",
"172 287 CURVE",
"168 287 LINE",
"169 312 OFFCURVE",
"172 353 OFFCURVE",
"172 374 CURVE SMOOTH",
"172 760 LINE",
"85 760 LINE",
"85 0 LINE",
"173 0 LINE",
"173 90 LINE SMOOTH",
"173 194 OFFCURVE",
"212 262 OFFCURVE",
"318 262 CURVE SMOOTH",
"398 262 OFFCURVE",
"425 220 OFFCURVE",
"425 134 CURVE SMOOTH",
"425 -33 LINE",
"405 -25 OFFCURVE",
"377 -22 OFFCURVE",
"352 -22 CURVE SMOOTH",
"258 -22 OFFCURVE",
"210 -72 OFFCURVE",
"210 -132 CURVE SMOOTH",
"210 -200 OFFCURVE",
"261 -235 OFFCURVE",
"345 -235 CURVE SMOOTH",
"412 -235 OFFCURVE",
"463 -210 OFFCURVE",
"488 -174 CURVE",
"497 -192 OFFCURVE",
"507 -215 OFFCURVE",
"517 -239 CURVE"
);
},
{
closed = 1;
nodes = (
"310 -171 OFFCURVE",
"288 -156 OFFCURVE",
"288 -130 CURVE SMOOTH",
"288 -101 OFFCURVE",
"314 -84 OFFCURVE",
"357 -84 CURVE SMOOTH",
"379 -84 OFFCURVE",
"406 -91 OFFCURVE",
"425 -106 CURVE",
"423 -135 OFFCURVE",
"398 -171 OFFCURVE",
"346 -171 CURVE SMOOTH"
);
}
);
width = 595;
}
);
unicode = 104E6;
category = Letter;
subCategory = Lowercase;
},
{
glyphname = u104E7;
lastChange = "2017-02-27 19:53:04 +0000";
layers = (
{
layerId = UUID0;
paths = (
{
closed = 1;
nodes = (
"424 -10 OFFCURVE",
"511 56 OFFCURVE",
"540 174 CURVE",
"448 174 LINE",
"428 104 OFFCURVE",
"381 63 OFFCURVE",
"303 63 CURVE SMOOTH",
"196 63 OFFCURVE",
"146 138 OFFCURVE",
"146 252 CURVE SMOOTH",
"146 421 OFFCURVE",
"277 504 OFFCURVE",
"462 514 CURVE",
"462 596 LINE",
"237 585 OFFCURVE",
"55 467 OFFCURVE",
"55 250 CURVE SMOOTH",
"55 84 OFFCURVE",
"164 -10 OFFCURVE",
"301 -10 CURVE SMOOTH"
);
}
);
width = 565;
}
);
unicode = 104E7;
category = Letter;
subCategory = Lowercase;
},
{
glyphname = u104E8;
lastChange = "2017-02-27 19:53:04 +0000";
layers = (
{
layerId = UUID0;
paths = (
{
closed = 1;
nodes = (
"173 0 LINE",
"173 321 LINE",
"197 433 OFFCURVE",
"269 471 OFFCURVE",
"337 471 CURVE SMOOTH",
"353 471 LINE",
"294 423 OFFCURVE",
"258 352 OFFCURVE",
"258 262 CURVE SMOOTH",
"258 102 OFFCURVE",
"349 47 OFFCURVE",
"445 47 CURVE SMOOTH",
"536 47 OFFCURVE",
"629 104 OFFCURVE",
"629 262 CURVE SMOOTH",
"629 351 OFFCURVE",
"598 422 OFFCURVE",
"550 469 CURVE",
"562 470 OFFCURVE",
"576 471 OFFCURVE",
"590 471 CURVE SMOOTH",
"654 471 OFFCURVE",
"728 452 OFFCURVE",
"772 432 CURVE",
"797 503 LINE",
"743 530 OFFCURVE",
"662 547 OFFCURVE",
"589 547 CURVE SMOOTH",
"543 547 OFFCURVE",
"499 541 OFFCURVE",
"459 529 CURVE",
"426 541 OFFCURVE",
"389 547 OFFCURVE",
"351 547 CURVE SMOOTH",
"299 547 OFFCURVE",
"214 522 OFFCURVE",
"173 463 CURVE",
"169 463 LINE",
"156 536 LINE",
"85 536 LINE",
"85 0 LINE"
);
},
{
closed = 1;
nodes = (
"393 120 OFFCURVE",
"349 162 OFFCURVE",
"349 265 CURVE SMOOTH",
"349 358 OFFCURVE",
"388 415 OFFCURVE",
"452 445 CURVE",
"505 415 OFFCURVE",
"538 358 OFFCURVE",
"538 265 CURVE SMOOTH",
"538 162 OFFCURVE",
"493 120 OFFCURVE",
"445 120 CURVE SMOOTH"
);
}
);
width = 802;
}
);
unicode = 104E8;
category = Letter;
subCategory = Lowercase;
},
{
glyphname = u104E9;
lastChange = "2017-02-27 19:53:04 +0000";
layers = (
{
layerId = UUID0;
paths = (
{
closed = 1;
nodes = (
"502 -10 OFFCURVE",
"589 56 OFFCURVE",
"618 174 CURVE",
"526 174 LINE",
"506 104 OFFCURVE",
"459 63 OFFCURVE",
"381 63 CURVE SMOOTH",
"274 63 OFFCURVE",
"216 150 OFFCURVE",
"216 264 CURVE SMOOTH",
"216 289 OFFCURVE",
"220 335 OFFCURVE",
"229 355 CURVE SMOOTH",
"307 536 LINE",
"215 536 LINE",
"-15 0 LINE",
"77 0 LINE",
"144 157 LINE",
"178 49 OFFCURVE",
"270 -10 OFFCURVE",
"379 -10 CURVE SMOOTH"
);
}
);
width = 628;
}
);
unicode = 104E9;
category = Letter;
subCategory = Lowercase;
},
{
glyphname = u104EA;
lastChange = "2017-02-27 19:53:04 +0000";
layers = (
{
layerId = UUID0;
paths = (
{
closed = 1;
nodes = (
"454 -10 OFFCURVE",
"551 91 OFFCURVE",
"551 269 CURVE SMOOTH",
"551 446 OFFCURVE",
"449 546 OFFCURVE",
"304 546 CURVE SMOOTH",
"150 546 OFFCURVE",
"55 446 OFFCURVE",
"55 269 CURVE SMOOTH",
"55 91 OFFCURVE",
"159 -10 OFFCURVE",
"301 -10 CURVE SMOOTH"
);
},
{
closed = 1;
nodes = (
"194 63 OFFCURVE",
"146 142 OFFCURVE",
"146 269 CURVE SMOOTH",
"146 396 OFFCURVE",
"193 472 OFFCURVE",
"302 472 CURVE SMOOTH",
"411 472 OFFCURVE",
"460 396 OFFCURVE",
"460 269 CURVE SMOOTH",
"460 142 OFFCURVE",
"411 63 OFFCURVE",
"303 63 CURVE SMOOTH"
);
}
);
width = 605;
}
);
unicode = 104EA;
category = Letter;
subCategory = Lowercase;
},
{
glyphname = u104EC;
lastChange = "2017-02-27 19:53:04 +0000";
layers = (
{
layerId = UUID0;
paths = (
{
closed = 1;
nodes = (
"173 0 LINE",
"173 78 LINE SMOOTH",
"173 95 OFFCURVE",
"172 118 OFFCURVE",
"171 134 CURVE",
"175 134 LINE",
"197 106 OFFCURVE",
"231 85 OFFCURVE",
"289 85 CURVE SMOOTH",
"381 85 OFFCURVE",
"442 150 OFFCURVE",
"442 274 CURVE SMOOTH",
"442 399 OFFCURVE",
"381 462 OFFCURVE",
"289 462 CURVE SMOOTH",
"229 462 OFFCURVE",
"189 435 OFFCURVE",
"174 409 CURVE",
"171 409 LINE",
"172 432 OFFCURVE",
"173 451 OFFCURVE",
"173 474 CURVE SMOOTH",
"173 536 LINE",
"85 536 LINE",
"85 0 LINE"
);
},
{
closed = 1;
nodes = (
"205 160 OFFCURVE",
"173 206 OFFCURVE",
"173 258 CURVE SMOOTH",
"173 288 LINE SMOOTH",
"173 338 OFFCURVE",
"209 389 OFFCURVE",
"271 389 CURVE SMOOTH",
"326 389 OFFCURVE",
"351 340 OFFCURVE",
"351 274 CURVE SMOOTH",
"351 209 OFFCURVE",
"324 160 OFFCURVE",
"269 160 CURVE SMOOTH"
);
}
);
width = 497;
}
);
unicode = 104EC;
category = Letter;
subCategory = Lowercase;
},
{
glyphname = u104EE;
lastChange = "2017-02-27 19:53:04 +0000";
layers = (
{
layerId = UUID0;
paths = (
{
closed = 1;
nodes = (
"472 -52 LINE",
"283 -23 OFFCURVE",
"146 77 OFFCURVE",
"146 273 CURVE SMOOTH",
"146 403 OFFCURVE",
"201 469 OFFCURVE",
"304 469 CURVE SMOOTH",
"341 469 OFFCURVE",
"388 456 OFFCURVE",
"420 444 CURVE",
"447 517 LINE",
"415 533 OFFCURVE",
"360 546 OFFCURVE",
"306 546 CURVE SMOOTH",
"162 546 OFFCURVE",
"55 463 OFFCURVE",
"55 272 CURVE SMOOTH",
"55 47 OFFCURVE",
"230 -102 OFFCURVE",
"472 -134 CURVE"
);
}
);
width = 480;
}
);
unicode = 104EE;
category = Letter;
subCategory = Lowercase;
},
{
glyphname = u104EF;
lastChange = "2017-02-27 19:53:04 +0000";
layers = (
{
layerId = UUID0;
paths = (
{
closed = 1;
nodes = (
"363 -10 OFFCURVE",
"438 43 OFFCURVE",
"438 136 CURVE SMOOTH",
"438 222 OFFCURVE",
"376 259 OFFCURVE",
"261 308 CURVE SMOOTH",
"167 348 OFFCURVE",
"144 366 OFFCURVE",
"144 409 CURVE SMOOTH",
"144 449 OFFCURVE",
"183 474 OFFCURVE",
"255 474 CURVE SMOOTH",
"307 474 OFFCURVE",
"357 459 OFFCURVE",
"402 440 CURVE",
"432 510 LINE",
"382 532 OFFCURVE",
"326 546 OFFCURVE",
"261 546 CURVE SMOOTH",
"141 546 OFFCURVE",
"60 495 OFFCURVE",
"60 406 CURVE SMOOTH",
"60 345 OFFCURVE",
"94 303 OFFCURVE",
"202 256 CURVE SMOOTH",
"328 201 OFFCURVE",
"353 177 OFFCURVE",
"353 130 CURVE SMOOTH",
"353 88 OFFCURVE",
"315 61 OFFCURVE",
"236 61 CURVE SMOOTH",
"156 61 OFFCURVE",
"125 97 OFFCURVE",
"125 152 CURVE SMOOTH",
"125 251 OFFCURVE",
"219 299 OFFCURVE",
"342 299 CURVE SMOOTH",
"478 299 OFFCURVE",
"521 242 OFFCURVE",
"521 154 CURVE SMOOTH",
"521 0 LINE",
"609 0 LINE",
"609 172 LINE SMOOTH",
"609 284 OFFCURVE",
"537 370 OFFCURVE",
"351 370 CURVE SMOOTH",
"187 370 OFFCURVE",
"40 282 OFFCURVE",
"40 145 CURVE SMOOTH",
"40 46 OFFCURVE",
"107 -10 OFFCURVE",
"236 -10 CURVE SMOOTH"
);
}
);
width = 659;
}
);
unicode = 104EF;
category = Letter;
subCategory = Lowercase;
},
{
glyphname = u104F0;
lastChange = "2017-02-27 19:53:04 +0000";
layers = (
{
layerId = UUID0;
paths = (
{
closed = 1;
nodes = (
"253 0 LINE SMOOTH",
"437 0 OFFCURVE",
"544 92 OFFCURVE",
"544 273 CURVE SMOOTH",
"544 445 OFFCURVE",
"447 536 OFFCURVE",
"280 536 CURVE SMOOTH",
"15 536 LINE",
"15 465 LINE",
"178 465 LINE",
"100 0 LINE"
);
},
{
closed = 1;
nodes = (
"268 465 LINE",
"281 465 LINE SMOOTH",
"382 465 OFFCURVE",
"452 404 OFFCURVE",
"452 271 CURVE SMOOTH",
"452 139 OFFCURVE",
"384 71 OFFCURVE",
"245 71 CURVE SMOOTH",
"202 71 LINE"
);
}
);
width = 599;
}
);
unicode = 104F0;
category = Letter;
subCategory = Lowercase;
},
{
glyphname = u104F2;
lastChange = "2017-02-27 19:53:04 +0000";
layers = (
{
layerId = UUID0;
paths = (
{
closed = 1;
nodes = (
"304 -131 OFFCURVE",
"365 -115 OFFCURVE",
"402 -101 CURVE",
"392 -30 LINE",
"352 -46 OFFCURVE",
"291 -60 OFFCURVE",
"231 -60 CURVE SMOOTH",
"147 -60 OFFCURVE",
"105 -32 OFFCURVE",
"105 19 CURVE SMOOTH",
"105 83 OFFCURVE",
"173 109 OFFCURVE",
"247 135 CURVE SMOOTH",
"353 172 OFFCURVE",
"480 212 OFFCURVE",
"480 359 CURVE SMOOTH",
"480 471 OFFCURVE",
"407 536 OFFCURVE",
"244 536 CURVE SMOOTH",
"112 536 LINE",
"112 468 LINE",
"244 468 LINE SMOOTH",
"364 468 OFFCURVE",
"395 426 OFFCURVE",
"395 358 CURVE SMOOTH",
"395 261 OFFCURVE",
"329 236 OFFCURVE",
"218 200 CURVE SMOOTH",
"78 154 OFFCURVE",
"20 101 OFFCURVE",
"20 18 CURVE SMOOTH",
"20 -82 OFFCURVE",
"104 -131 OFFCURVE",
"223 -131 CURVE SMOOTH"
);
},
{
closed = 1;
nodes = (
"243 167 LINE",
"291 501 LINE",
"208 505 LINE",
"155 137 LINE"
);
}
);
width = 530;
}
);
unicode = 104F2;
category = Letter;
subCategory = Lowercase;
},
{
glyphname = u104F5;
lastChange = "2017-02-27 19:53:04 +0000";
layers = (
{
layerId = UUID0;
paths = (
{
closed = 1;
nodes = (
"277 0 LINE",
"277 147 LINE SMOOTH",
"277 264 OFFCURVE",
"322 292 OFFCURVE",
"386 292 CURVE SMOOTH",
"460 292 OFFCURVE",
"498 250 OFFCURVE",
"498 164 CURVE SMOOTH",
"498 0 LINE",
"586 0 LINE",
"586 170 LINE SMOOTH",
"586 307 OFFCURVE",
"513 366 OFFCURVE",
"396 366 CURVE SMOOTH",
"332 366 OFFCURVE",
"293 339 OFFCURVE",
"281 321 CURVE",
"277 322 LINE",
"277 464 LINE",
"443 464 LINE",
"443 536 LINE",
"21 536 LINE",
"21 464 LINE",
"188 464 LINE",
"188 0 LINE"
);
}
);
width = 651;
}
);
unicode = 104F5;
category = Letter;
subCategory = Lowercase;
},
{
glyphname = u104F6;
lastChange = "2017-02-27 19:53:04 +0000";
layers = (
{
layerId = UUID0;
paths = (
{
closed = 1;
nodes = (
"464 -10 OFFCURVE",
"533 61 OFFCURVE",
"533 216 CURVE SMOOTH",
"533 536 LINE",
"444 536 LINE",
"444 201 LINE SMOOTH",
"444 105 OFFCURVE",
"402 63 OFFCURVE",
"303 63 CURVE SMOOTH",
"208 63 OFFCURVE",
"168 107 OFFCURVE",
"168 201 CURVE SMOOTH",
"168 536 LINE",
"79 536 LINE",
"79 216 LINE SMOOTH",
"79 61 OFFCURVE",
"142 -10 OFFCURVE",
"306 -10 CURVE SMOOTH"
);
}
);
width = 618;
}
);
unicode = 104F6;
category = Letter;
subCategory = Lowercase;
},
{
glyphname = u104F7;
lastChange = "2017-02-27 19:53:04 +0000";
layers = (
{
layerId = UUID0;
paths = (
{
closed = 1;
nodes = (
"263 0 LINE",
"387 330 LINE",
"178 330 LINE",
"256 536 LINE",
"164 536 LINE",
"60 260 LINE",
"268 260 LINE",
"171 0 LINE"
);
}
);
width = 447;
}
);
unicode = 104F7;
category = Letter;
subCategory = Lowercase;
},
{
glyphname = u104F8;
lastChange = "2017-02-27 19:53:04 +0000";
layers = (
{
layerId = UUID0;
paths = (
{
closed = 1;
nodes = (
"426 -223 LINE",
"426 471 LINE",
"539 461 OFFCURVE",
"614 397 OFFCURVE",
"614 256 CURVE SMOOTH",
"614 164 OFFCURVE",
"603 93 OFFCURVE",
"582 0 CURVE",
"669 0 LINE",
"690 90 OFFCURVE",
"700 165 OFFCURVE",
"700 253 CURVE SMOOTH",
"700 459 OFFCURVE",
"577 536 OFFCURVE",
"426 545 CURVE",
"426 776 LINE",
"340 776 LINE",
"340 545 LINE",
"188 539 OFFCURVE",
"79 465 OFFCURVE",
"79 266 CURVE SMOOTH",
"79 0 LINE",
"166 0 LINE",
"166 269 LINE SMOOTH",
"166 420 OFFCURVE",
"247 465 OFFCURVE",
"340 472 CURVE",
"340 -223 LINE"
);
}
);
width = 765;
}
);
unicode = 104F8;
category = Letter;
subCategory = Lowercase;
},
{
glyphname = u104F9;
lastChange = "2017-02-27 19:53:04 +0000";
layers = (
{
layerId = UUID0;
paths = (
{
closed = 1;
nodes = (
"426 -240 LINE",
"426 -9 LINE",
"577 0 OFFCURVE",
"700 77 OFFCURVE",
"700 283 CURVE SMOOTH",
"700 371 OFFCURVE",
"690 446 OFFCURVE",
"669 536 CURVE",
"582 536 LINE",
"603 443 OFFCURVE",
"614 372 OFFCURVE",
"614 280 CURVE SMOOTH",
"614 139 OFFCURVE",
"539 75 OFFCURVE",
"426 65 CURVE",
"426 759 LINE",
"340 759 LINE",
"340 64 LINE",
"247 71 OFFCURVE",
"166 116 OFFCURVE",
"166 267 CURVE SMOOTH",
"166 536 LINE",
"79 536 LINE",
"79 270 LINE SMOOTH",
"79 71 OFFCURVE",
"188 -3 OFFCURVE",
"340 -9 CURVE",
"340 -240 LINE"
);
}
);
width = 765;
}
);
unicode = 104F9;
category = Letter;
subCategory = Lowercase;
},
{
glyphname = u104FA;
lastChange = "2017-02-27 19:53:04 +0000";
layers = (
{
layerId = UUID0;
paths = (
{
closed = 1;
nodes = (
"91 0 LINE",
"424 470 LINE",
"424 536 LINE",
"56 536 LINE",
"56 468 LINE",
"327 468 LINE",
"-4 0 LINE"
);
}
);
width = 444;
}
);
unicode = 104FA;
category = Letter;
subCategory = Lowercase;
},
{
glyphname = u104FB;
lastChange = "2017-02-27 19:53:04 +0000";
layers = (
{
layerId = UUID0;
paths = (
{
closed = 1;
nodes = (
"99 0 LINE",
"119 70 OFFCURVE",
"168 105 OFFCURVE",
"247 105 CURVE SMOOTH",
"326 105 OFFCURVE",
"371 70 OFFCURVE",
"391 0 CURVE",
"477 0 LINE",
"447 117 OFFCURVE",
"365 176 OFFCURVE",
"249 176 CURVE SMOOTH",
"233 176 OFFCURVE",
"219 175 OFFCURVE",
"205 173 CURVE",
"415 470 LINE",
"415 536 LINE",
"47 536 LINE",
"47 468 LINE",
"318 468 LINE",
"20 42 LINE",
"20 0 LINE"
);
}
);
width = 487;
}
);
unicode = 104FB;
category = Letter;
subCategory = Lowercase;
},
{
export = 0;
glyphname = vertbar;
lastChange = "2017-02-27 19:53:04 +0000";
layers = (
{
layerId = UUID0;
paths = (
{
closed = 1;
nodes = (
"76 0 LINE",
"76 184 LINE",
"0 184 LINE",
"0 0 LINE"
);
}
);
width = 0;
}
);
},
{
export = 0;
glyphname = horizbar1;
lastChange = "2017-02-27 19:53:04 +0000";
layers = (
{
layerId = UUID0;
paths = (
{
closed = 1;
nodes = (
"297 0 LINE",
"297 71 LINE",
"0 71 LINE",
"0 0 LINE"
);
}
);
width = 0;
}
);
},
{
export = 0;
glyphname = horizbar2;
lastChange = "2017-02-27 19:53:04 +0000";
layers = (
{
layerId = UUID0;
paths = (
{
closed = 1;
nodes = (
"257 0 LINE",
"257 68 LINE",
"0 68 LINE",
"0 0 LINE"
);
}
);
width = 0;
}
);
},
